# ProBuilder 5.0.6
# https://unity3d.com/unity/features/worldbuilding/probuilder
# 06.11.2022 12:44:20

mtllib ./Cube.mtl
o Cube

g Cube
v -0.1470003 1.9185 -4.3715
v -5.147 1.9185 -4.3715
v -5.147 1.9185 -2.998
v -0.1470003 1.9185 -2.998
v -5.147 -0.08149993 -2.998
v -5.147 -0.08149993 -4.3715
v -0.1470003 -0.08149993 -4.3715
v -0.1470003 -0.08149993 -2.998
v -5.147 1.9185 -1.738
v -0.1470003 1.9185 -1.738
v -5.147 1.9185 -0.3715
v -0.1470003 1.9185 -0.3715
v -0.1470003 -0.08149993 -1.738
v -5.147 -0.08149993 -1.738
v -0.1470003 -0.08149993 -0.3715
v -5.147 -0.08149993 -0.3715
v 3.243 -0.08149993 -1.738
v 3.243 -0.08149993 -2.998
v 3.243 1.9185 -2.998
v 3.243 1.9185 -1.738
v -8.942 1.9185 -1.738
v -8.942 1.9185 -2.998
v -8.942 -0.08149993 -2.998
v -8.942 -0.08149993 -1.738
v -5.147 0 -0.3715
v -0.1470003 0 -0.3715
v -5.147 -0.037 -0.382
v -5.147 -0.08149993 -0.382
v -0.1470003 -0.08149993 -0.382
v -0.1470003 -0.037 -0.382
v -5.138 -0.08149993 -0.3715
v -5.138 -0.037 -0.3715
v -5.138 -0.037 -1.738
v -5.138 -0.08149993 -1.738
v -5.147 0 -1.738
v -0.158 -0.08149993 -0.3715
v -0.158 -0.08149993 -1.747
v -0.158 -0.037 -1.748
v -0.158 -0.037 -0.3715
v -0.1470003 -0.018 -1.747
v 3.243 0 -1.738
v -0.1470003 -0.037 -1.75
v -0.1470003 -0.08149993 -1.75
v 3.243 -0.08149993 -1.75
v 3.243 -0.037 -1.75
v -5.147 -0.08149993 -1.749
v -5.147 -0.037 -1.749
v -8.942 -0.037 -1.749
v -8.942 -0.08149993 -1.749
v -8.942 0 -1.738
v -0.1470003 0 -4.3715
v -5.147 0 -4.3715
v -0.1470003 -0.037 -4.361
v -0.1470003 -0.08149993 -4.361
v -5.147 -0.08149993 -4.361
v -5.147 -0.037 -4.361
v -5.136001 -0.08149993 -2.998
v -5.136001 -0.037 -2.998
v -5.136001 -0.037 -4.3715
v -5.136001 -0.08149993 -4.3715
v -5.147 0 -2.998
v -0.1570001 -0.08149993 -2.998
v -0.1570001 -0.08149993 -4.3715
v -0.1570001 -0.037 -4.3715
v -0.1570001 -0.037 -2.998
v -0.1470003 0 -2.998
v -0.1470003 -0.08149993 -2.988
v -0.1470003 -0.037 -2.988
v 3.243 -0.037 -2.988
v 3.243 -0.08149993 -2.988
v 3.243 0 -2.998
v -8.942 0 -2.998
v -5.147 -0.037 -2.99
v -5.147 -0.08149993 -2.99
v -8.942 -0.08149993 -2.99
v -8.942 -0.037 -2.99
v -0.1570001 -0.037 -2.988
v -0.1570001 -0.08149993 -2.988
v -0.158 -0.08149993 -1.75
v -0.158 -0.037 -1.75
v -5.136001 -0.08149993 -2.99
v -5.136001 -0.037 -2.99
v -5.138 -0.037 -1.749
v -5.138 -0.08149993 -1.749

vt -0.1470003 -4.3715
vt -5.147 -4.3715
vt -5.147 -2.998
vt -0.1470003 -2.998
vt 5.147 -2.998
vt 5.147 -4.3715
vt 0.1470003 -4.3715
vt 0.1470003 -2.998
vt -5.147 -1.738
vt -0.1470003 -1.738
vt -5.147 -0.3715
vt -0.1470003 -0.3715
vt 0.1470003 -1.738
vt 5.147 -1.738
vt 0.1470003 -0.3715
vt 5.147 -0.3715
vt -3.243 -1.738
vt -3.243 -2.998
vt 3.243 -2.998
vt 3.243 -1.738
vt -8.942 -1.738
vt -8.942 -2.998
vt 8.942 -2.998
vt 8.942 -1.738
vt 0.1470003 1.9185
vt 5.147 1.9185
vt 5.147 0
vt 0.1470003 0
vt 5.147 -0.037
vt 5.147 -0.08149993
vt 0.1470003 -0.08149993
vt 0.1470003 -0.037
vt 0.3715 -0.08149993
vt 0.3715 -0.037
vt 1.738 -0.037
vt 1.738 -0.08149993
vt 0.3715 0
vt 0.3715 1.9185
vt 1.738 1.9185
vt 1.738 0
vt -0.3715 -0.08149993
vt -1.747 -0.08149993
vt -1.748 -0.037
vt -0.3715 -0.037
vt -1.747 -0.018
vt -1.738 1.9185
vt -0.3715 1.9185
vt -0.3715 0
vt 0.1470003 -0.018
vt -3.243 0
vt -3.243 1.9185
vt -3.243 -0.08149993
vt -3.243 -0.037
vt 8.942 -0.037
vt 8.942 -0.08149993
vt 8.942 1.9185
vt 8.942 0
vt -5.147 1.9185
vt -0.1470003 1.9185
vt -0.1470003 0
vt -5.147 0
vt -0.1470003 -0.037
vt -0.1470003 -0.08149993
vt -5.147 -0.08149993
vt -5.147 -0.037
vt 2.998 -0.08149993
vt 2.998 -0.037
vt 4.3715 -0.037
vt 4.3715 -0.08149993
vt 2.998 0
vt 2.998 1.9185
vt 4.3715 1.9185
vt 4.3715 0
vt -2.998 -0.08149993
vt -4.3715 -0.08149993
vt -4.3715 -0.037
vt -2.998 -0.037
vt -4.3715 0
vt -4.3715 1.9185
vt -2.998 1.9185
vt -2.998 0
vt 3.243 -0.037
vt 3.243 -0.08149993
vt 3.243 1.9185
vt 3.243 0
vt -8.942 0
vt -8.942 1.9185
vt -8.942 -0.08149993
vt -8.942 -0.037
vt -0.1570001 -2.998
vt -0.1570001 -4.3715
vt 0.1570001 -0.08149993
vt 0.1570001 -0.037
vt -0.1570001 -0.037
vt -0.1570001 -0.08149993
vt -4.3715 -0.03835282
vt -2.998 -0.03835282
vt -4.3715 -0.07668029
vt -2.998 -0.07668029
vt -0.158 -0.3715
vt -0.158 -1.747
vt 0.158 -0.08149993
vt 0.158 -0.037
vt -0.158 -0.037
vt -0.158 -0.08149993
vt -1.745835 -0.09589926
vt -0.3703749 -0.07509696
vt -1.746752 -0.1178572
vt -0.3702916 -0.1126263
vt -0.1470003 -4.361
vt -5.147 -4.361
vt -4.361 -0.08149993
vt -4.361 -0.037
vt 4.361 -0.037
vt 4.361 -0.08149993
vt -5.147 1.193431
vt -0.1470003 1.193431
vt -5.147 1.15497
vt -0.1470003 1.15497
vt -5.136001 -0.08149993
vt -5.136001 -0.037
vt 2.998 1.466703
vt 4.3715 1.466703
vt 2.998 1.428102
vt 4.3715 1.428102
vt 5.136001 -0.037
vt 5.136001 -0.08149993
vt -5.136001 -4.3715
vt -5.136001 -2.998
vt 0.382 -0.08149993
vt 0.382 -0.037
vt 0.1470003 -0.1014205
vt 5.147 -0.1014205
vt 0.1470003 -0.1398815
vt 5.147 -0.1398815
vt -0.382 -0.037
vt -0.382 -0.08149993
vt -5.147 -0.382
vt -0.1470003 -0.382
vt -5.138 -0.08149993
vt -5.138 -0.037
vt 0.3715 1.216479
vt 1.738 1.216479
vt 0.3715 1.1784
vt 1.738 1.1784
vt 5.138 -0.037
vt 5.138 -0.08149993
vt -5.138 -1.738
vt -5.138 -0.3715
vt -3.241378 -0.5371173
vt 0.1486297 -0.5560403
vt -3.241366 -0.5760146
vt 0.1486325 -0.5750391
vt -0.158 -1.75
vt -0.1470003 -1.75
vt 3.243 -1.75
vt -0.1678703 -0.2856968
vt -0.157227 -0.3049247
vt -0.168407 -0.3049247
vt -0.1575847 -0.3052268
vt -1.75 -0.037
vt -1.75 -0.08149993
vt 3.243 -2.988
vt -0.1470003 -2.988
vt -2.988 -0.07668029
vt -2.988 -0.07407133
vt -0.1470003 0.782222
vt 3.243 0.782222
vt -0.1470003 0.7438944
vt 3.243 0.7438944
vt -0.1570001 -2.988
vt -2.988 -0.08149993
vt -2.988 -0.037
vt 1.749 1.178401
vt 1.749 1.180528
vt 5.147 -0.4952651
vt 8.942 -0.4952651
vt 5.147 -0.5338655
vt 8.942 -0.5338655
vt -8.942 -1.749
vt -5.147 -1.749
vt -5.138 -1.749
vt 1.749 -0.08149993
vt 1.749 -0.037
vt -5.147 -2.99
vt -8.942 -2.99
vt -5.136001 -2.99
vt -8.942 0.633604
vt -5.147 0.633604
vt -8.942 0.595749
vt -5.147 0.595749
vt -2.399029 0.9391161
vt -2.390134 0.9015546
vt -2.403735 0.9015546
vt -2.39484 0.9004402
vt 2.99 -0.037
vt 2.99 -0.08149993

vn 0 -1 0
vn 0 1 0
vn 0 0 -1
vn 1 0 0
vn -1 0 0
vn 0.00131505 0.002323702 -0.9999928
vn 0.002630101 0.004647403 -0.9999858
vn 0 0 1
vn -0.9653651 0.260903 0
vn -0.8652642 0.5012732 -0.006559739
vn -0.9119014 0.3931179 -0.003279869
vn -0.9585387 0.2849627 0
vn 0 0.2730026 0.9620133
vn 0.9585387 0.2849626 0
vn 0 0.2730026 -0.9620133
vn 0.9716687 0.2363472 0
vn 0.0008872304 0.3085065 -0.9512218
vn 0.0004436152 0.2322412 -0.9694914
vn 0 0.1559758 -0.9877609
vn -0.1767574 0.1535198 -0.972208
vn -0.08837871 0.5767599 -0.486104
vn -0.4826825 0.2609088 0.4826809
vn 0 0.2609146 0.9653619
vn 0.4858343 0.260655 -0.4792693
vn 0 0.2849627 -0.9585387
vn 0 0.2113422 0.9774122
vn 0.5794091 0.1722517 0.796627
vn 0.2897045 0.5861259 0.3983135

usemtl ProBuilderDefault
f 62/90/1 63/91/1 7/1/1 8/4/1
f 63/92/3 64/93/3 51/28/3 7/31/3
f 36/100/1 37/101/1 13/10/1 15/12/1
f 39/104/8 36/105/8 15/63/8 26/60/8
f 54/110/1 55/111/1 6/2/1 7/1/1
f 55/112/5 56/113/5 52/78/5 6/75/5
f 53/114/4 54/115/4 7/69/4 51/73/4
f 59/126/3 60/127/3 6/30/3 52/27/3
f 60/128/1 57/129/1 5/3/1 6/2/1
f 29/130/4 30/131/4 26/37/4 15/33/4
f 27/136/5 28/137/5 16/41/5 25/48/5
f 28/138/1 29/139/1 15/12/1 16/11/1
f 31/140/8 32/141/8 25/61/8 16/64/8
f 34/148/1 31/149/1 16/11/1 14/9/1
f 79/154/1 43/155/1 13/10/1 37/101/1
f 43/155/1 44/156/1 17/20/1 13/10/1
f 70/163/1 67/164/1 8/4/1 18/19/1
f 67/164/1 78/171/1 62/90/1 8/4/1
f 49/180/1 46/181/1 14/9/1 24/21/1
f 46/181/1 84/182/1 34/148/1 14/9/1
f 74/185/1 75/186/1 23/22/1 5/3/1
f 81/187/1 74/185/1 5/3/1 57/129/1

usemtl potal
f 1/1/1 4/4/1 3/3/1 2/2/1
f 4/4/1 10/10/1 9/9/1 3/3/1
f 10/10/1 12/12/1 11/11/1 9/9/1
f 19/19/1 20/20/1 10/10/1 4/4/1
f 21/21/1 22/22/1 3/3/1 9/9/1

usemtl wall
f 25/27/3 11/26/3 12/25/3 26/28/3
f 35/40/4 9/39/4 11/38/4 25/37/4
f 12/47/5 10/46/5 40/45/5 26/48/5
f 40/49/7 10/25/6 20/51/3 41/50/6
f 50/57/3 21/56/3 9/26/3 35/27/3
f 1/59/8 2/58/8 52/61/8 51/60/8
f 52/73/4 2/72/4 3/71/4 61/70/4
f 4/80/5 1/79/5 51/78/5 66/81/5
f 19/84/8 4/59/8 66/60/8 71/85/8
f 3/58/8 22/87/8 72/86/8 61/61/8

usemtl floor
f 5/5/2 8/8/2 7/7/2 6/6/2
f 14/14/2 13/13/2 8/8/2 5/5/2
f 16/16/2 15/15/2 13/13/2 14/14/2
f 17/17/2 18/18/2 8/8/2 13/13/2
f 23/23/2 24/24/2 14/14/2 5/5/2

usemtl Wood2
f 28/30/3 27/29/3 30/32/3 29/31/3
f 34/36/4 33/35/4 32/34/4 31/33/4
f 39/44/5 38/43/5 37/42/5 36/41/5
f 43/31/3 42/32/3 45/53/3 44/52/3
f 49/55/3 48/54/3 47/29/3 46/30/3
f 53/62/8 56/65/8 55/64/8 54/63/8
f 60/69/4 59/68/4 58/67/4 57/66/4
f 65/77/5 64/76/5 63/75/5 62/74/5
f 69/82/8 68/62/8 67/63/8 70/83/8
f 73/65/8 76/89/8 75/88/8 74/64/8
f 77/94/8 78/95/8 67/63/8 68/62/8
f 64/98/9 65/99/9 66/97/9 51/96/9
f 79/102/3 80/103/3 42/32/3 43/31/3
f 38/108/11 39/109/12 26/107/11 40/106/10
f 56/118/13 53/119/13 51/117/13 52/116/13
f 81/120/8 82/121/8 73/65/8 74/64/8
f 58/124/14 59/125/14 52/123/14 61/122/14
f 30/134/15 27/135/15 25/133/15 26/132/15
f 32/144/16 33/145/16 35/143/16 25/142/16
f 83/146/3 84/147/3 46/30/3 47/29/3
f 45/152/18 42/153/19 40/151/18 41/150/17
f 42/159/21 80/160/2 38/158/21 40/157/20
f 80/161/5 79/162/5 37/42/5 38/43/5
f 77/165/22 68/166/23 66/97/22 65/99/9
f 68/169/23 69/170/23 71/168/23 66/167/23
f 78/172/5 77/173/5 65/77/5 62/74/5
f 83/174/24 47/175/25 35/143/24 33/145/16
f 47/178/25 48/179/25 50/177/25 35/176/25
f 84/183/4 83/184/4 33/35/4 34/36/4
f 76/190/26 73/191/26 61/189/26 72/188/26
f 73/194/28 82/195/2 58/193/28 61/192/27
f 82/196/4 81/197/4 57/66/4 58/67/4

